<svg width="408" height="94" viewBox="0 0 408 94" fill="none" xmlns="http://www.w3.org/2000/svg">
<path d="M25.72 86.328C23.8427 86.328 22.3493 85.56 21.24 84.024C20.216 82.5733 19.704 80.9093 19.704 79.032C19.704 76.6427 20.728 73.5707 22.776 69.816C24.824 66.0613 27.5547 61.752 30.968 56.888C34.4667 51.9387 38.3493 46.5627 42.616 40.76C46.968 34.9573 51.4053 28.8133 55.928 22.328C56.0987 22.1573 55.8427 22.456 55.16 23.224C54.4773 23.992 53.624 25.016 52.6 26.296C51.576 27.4907 50.552 28.728 49.528 30.008C48.504 31.288 47.6507 32.312 46.968 33.08C46.3707 33.848 46.1147 34.1467 46.2 33.976L56.824 17.592C57.336 16.824 58.1467 15.928 59.256 14.904C60.3653 13.7947 60.92 12.9413 60.92 12.344C60.92 12.0027 60.4933 11.832 59.64 11.832C59.384 11.832 59.0427 11.832 58.616 11.832C58.2747 11.832 57.848 11.9173 57.336 12.088C55.544 12.4293 53.1547 13.1547 50.168 14.264C47.1813 15.3733 43.896 16.7387 40.312 18.36C36.8133 19.896 33.272 21.6453 29.688 23.608C26.1893 25.5707 22.9893 27.576 20.088 29.624C17.1867 31.672 14.8827 33.72 13.176 35.768C11.4693 37.7307 10.6587 39.5653 10.744 41.272C10.9147 43.32 10.744 44.6853 10.232 45.368C9.72 45.9653 9.08 46.6053 8.312 47.288C7.88534 47.6293 7.288 47.8 6.52 47.8C5.15467 47.8 3.78934 47.1173 2.424 45.752C1.144 44.3867 0.504002 42.6373 0.504002 40.504C0.504002 39.3093 0.717335 38.1147 1.144 36.92C1.656 35.64 2.46667 34.3173 3.576 32.952C5.88 30.0507 9.16534 27.192 13.432 24.376C17.784 21.56 22.648 18.9573 28.024 16.568C33.4 14.1787 38.8613 12.1733 44.408 10.552C49.9547 8.93066 55.1173 7.82133 59.896 7.224C61.432 7.05333 63.096 7.60799 64.888 8.88799C66.68 10.168 68.1733 11.704 69.368 13.496C70.648 15.288 71.288 16.8667 71.288 18.232C71.288 18.9147 71.1173 19.4267 70.776 19.768C67.3627 23.4373 63.6933 27.576 59.768 32.184C55.928 36.7067 52.3013 41.1867 48.888 45.624C45.4747 50.0613 42.7013 53.9867 40.568 57.4C39.4587 59.192 38.3067 60.856 37.112 62.392C36.0027 63.8427 35.448 64.6533 35.448 64.824C35.448 64.9947 35.9173 64.696 36.856 63.928C37.7947 63.16 39.416 61.7093 41.72 59.576C42.488 58.808 43.896 57.4427 45.944 55.48C47.992 53.432 50.3813 51.0853 53.112 48.44C55.928 45.7947 58.8293 43.064 61.816 40.248C64.888 37.3467 67.832 34.7013 70.648 32.312C73.5493 29.8373 76.1093 27.7893 78.328 26.168C80.632 24.5467 82.296 23.6933 83.32 23.608C83.9173 23.5227 84.8133 23.7787 86.008 24.376C87.2027 24.888 88.3547 25.5707 89.464 26.424C90.6587 27.192 91.5973 28.0027 92.28 28.856C92.9627 29.7093 93.0907 30.392 92.664 30.904C91.64 32.184 90.36 34.0187 88.824 36.408C87.288 38.712 85.7093 41.3147 84.088 44.216C82.552 47.1173 81.1013 50.0613 79.736 53.048C78.1147 56.5467 76.792 59.9173 75.768 63.16C74.744 66.4027 74.232 69.0053 74.232 70.968C74.232 73.4427 75.0853 74.68 76.792 74.68C77.9013 74.68 79.3947 74.0827 81.272 72.888C83.2347 71.6933 85.6667 69.7733 88.568 67.128C91.64 64.312 94.7547 60.9413 97.912 57.016C101.155 53.0907 104.312 48.952 107.384 44.6C110.456 40.248 113.315 35.9387 115.96 31.672C118.691 27.32 121.08 23.3093 123.128 19.64C125.261 15.9707 126.883 12.9413 127.992 10.552C128.248 10.04 127.992 9.48533 127.224 8.88799C126.456 8.29066 125.987 7.69333 125.816 7.09599C125.56 5.90133 125.731 4.83466 126.328 3.896C127.011 2.95733 127.992 2.70133 129.272 3.128C132.088 3.98133 134.477 5.432 136.44 7.48C138.488 9.44266 139.512 11.2773 139.512 12.984C139.512 13.6667 139.427 14.136 139.256 14.392C138.147 16.696 136.653 19.384 134.776 22.456C132.984 25.528 131.405 28.2587 130.04 30.648C130.125 30.3067 130.381 29.624 130.808 28.6C131.32 27.4907 131.875 26.296 132.472 25.016C133.069 23.736 133.581 22.6693 134.008 21.816C134.435 20.8773 134.605 20.4933 134.52 20.664C133.24 22.7973 131.747 25.2293 130.04 27.96C128.419 30.6053 126.627 33.4213 124.664 36.408L128.504 31.032C126.797 34.104 125.219 36.8773 123.768 39.352C122.317 41.7413 120.824 44.088 119.288 46.392C117.752 48.6107 116.003 51.0427 114.04 53.688C112.077 56.4187 109.816 59.2347 107.256 62.136C104.696 65.0373 102.093 67.8107 99.448 70.456C96.888 73.016 94.584 75.1493 92.536 76.856C92.024 77.1973 91.7253 77.1973 91.64 76.856C89.5067 78.648 87.5013 80.0987 85.624 81.208C83.7467 82.232 81.9547 82.8293 80.248 83C78.0293 82.5733 75.8107 81.8053 73.592 80.696C71.4587 79.5013 69.5813 78.136 67.96 76.6C66.424 74.9787 65.4853 73.3147 65.144 71.608C64.888 70.328 64.76 69.2613 64.76 68.408C64.76 67.5547 64.8453 66.616 65.016 65.592C65.272 64.568 65.5707 63.2453 65.912 61.624C66.68 58.1253 67.7893 54.456 69.24 50.616C70.6907 46.776 72.184 43.2773 73.72 40.12C75.256 36.9627 76.5787 34.7013 77.688 33.336C75.2987 34.9573 72.3973 37.176 68.984 39.992C65.656 42.7227 62.1147 45.7947 58.36 49.208C54.6053 52.536 50.8933 55.9493 47.224 59.448C43.64 62.9467 40.3973 66.2747 37.496 69.432C34.5947 72.5893 32.3333 75.32 30.712 77.624C31.6507 76.7707 32.8453 75.576 34.296 74.04C35.7467 72.504 37.112 71.0533 38.392 69.688C39.7573 68.2373 40.696 67.3413 41.208 67C40.5253 67.768 39.6293 68.8347 38.52 70.2C37.4107 71.48 36.3013 72.8027 35.192 74.168C34.168 75.5333 33.272 76.6853 32.504 77.624C31.8213 78.5627 31.48 79.0747 31.48 79.16C31.5653 79.416 31.608 79.7573 31.608 80.184C31.608 81.8053 30.9253 83.2133 29.56 84.408C28.1947 85.688 26.9147 86.328 25.72 86.328ZM91.64 76.856C95.224 73.8693 98.936 70.1573 102.776 65.72C106.701 61.1973 110.541 56.376 114.296 51.256C118.051 46.136 121.507 41.1867 124.664 36.408L112.76 52.92C107.811 59.832 103.373 65.1227 99.448 68.792C95.5227 72.376 93.2187 74.5093 92.536 75.192C91.9387 75.704 91.64 76.2587 91.64 76.856ZM120.962 84.024C119.767 84.024 118.487 83.768 117.122 83.256C115.842 82.8293 114.69 82.1467 113.666 81.208C112.642 80.2693 111.533 78.8613 110.338 76.984C109.229 75.0213 108.674 73.1013 108.674 71.224C108.674 70.456 108.802 69.7733 109.058 69.176C111.789 61.8373 116.226 55.1387 122.37 49.08C128.514 42.936 136.023 37.7733 144.898 33.592C146.093 33.592 147.33 34.0613 148.61 35C149.89 35.8533 150.957 36.92 151.81 38.2L154.114 38.968C154.029 38.0293 153.73 37.4747 153.218 37.304C152.706 37.048 152.45 36.7067 152.45 36.28C152.621 35.512 153.175 35.0853 154.114 35C155.053 34.8293 155.735 34.744 156.162 34.744C157.527 34.744 158.637 35.384 159.49 36.664C160.429 37.8587 160.941 39.1813 161.026 40.632C163.074 40.888 165.207 41.0587 167.426 41.144C169.645 41.2293 171.565 41.3147 173.186 41.4C174.893 41.4 175.831 41.4 176.002 41.4H176.386C176.642 41.4 176.77 41.5707 176.77 41.912C176.77 42.5093 176.429 43.0213 175.746 43.448C174.893 44.1307 172.887 44.6 169.73 44.856C166.658 45.0267 163.415 45.112 160.002 45.112C159.575 46.392 158.935 47.7573 158.082 49.208C157.229 50.6587 156.247 52.152 155.138 53.688C154.37 54.7973 153.218 56.2907 151.682 58.168C150.146 59.96 148.567 61.7947 146.946 63.672C145.325 65.5493 143.959 67.128 142.85 68.408C143.618 67.7253 144.855 66.5307 146.562 64.824C148.354 63.032 149.805 61.4533 150.914 60.088C151.341 59.576 151.981 58.7653 152.834 57.656C153.687 56.4613 154.498 55.352 155.266 54.328C156.119 53.2187 156.631 52.4933 156.802 52.152C155.693 54.456 154.285 56.6747 152.578 58.808C150.871 60.9413 149.165 62.8613 147.458 64.568C145.751 66.2747 144.301 67.6827 143.106 68.792C141.911 69.816 141.229 70.4133 141.058 70.584C137.474 74.3387 133.847 77.5387 130.178 80.184C126.594 82.744 123.522 84.024 120.962 84.024ZM116.866 79.672C117.293 79.672 117.805 79.544 118.402 79.288C119.341 78.776 120.535 77.9653 121.986 76.856C123.522 75.7467 125.101 74.5947 126.722 73.4C128.173 72.2053 129.794 70.7547 131.586 69.048C133.378 67.256 135.341 65.1653 137.474 62.776C139.351 60.6427 141.357 58.3387 143.49 55.864C145.623 53.304 147.714 50.6587 149.762 47.928L147.842 49.72C148.439 49.1227 149.165 48.312 150.018 47.288C150.957 46.1787 151.725 45.3253 152.322 44.728C149.677 44.5573 148.098 44.4293 147.586 44.344C147.501 44.5147 147.373 44.6 147.202 44.6C147.031 44.6 146.946 44.3013 146.946 43.704C146.946 43.5333 146.946 43.32 146.946 43.064C146.946 42.7227 146.989 42.3813 147.074 42.04C146.221 41.9547 145.282 42.0827 144.258 42.424C143.234 42.7653 142.082 43.4907 140.802 44.6C139.351 45.9653 137.474 47.672 135.17 49.72C132.866 51.768 130.477 54.1147 128.002 56.76C125.527 59.32 123.181 62.0933 120.962 65.08C118.829 68.0667 117.122 71.224 115.842 74.552C115.415 75.576 115.202 76.6 115.202 77.624C115.202 79.0747 115.842 79.5013 117.122 78.904C116.695 79.16 116.482 79.3307 116.482 79.416C116.482 79.5867 116.61 79.672 116.866 79.672ZM117.122 78.904C118.743 78.0507 121.303 76.2587 124.802 73.528C128.386 70.712 132.013 67.2987 135.682 63.288C136.877 62.008 138.242 60.5573 139.778 58.936C141.314 57.2293 142.807 55.608 144.258 54.072C145.709 52.536 146.818 51.3413 147.586 50.488C145.623 52.8773 143.789 55.0533 142.082 57.016C140.461 58.8933 138.882 60.6853 137.346 62.392C133.762 66.232 130.093 69.688 126.338 72.76C122.669 75.832 119.597 77.88 117.122 78.904ZM149.151 83C147.7 82.8293 146.548 82.0187 145.695 80.568C144.842 79.032 144.415 77.5813 144.415 76.216C144.415 75.1067 145.012 73.3573 146.207 70.968C147.487 68.5787 149.066 65.8907 150.943 62.904C152.906 59.832 154.911 56.8453 156.959 53.944C159.092 50.9573 160.97 48.312 162.591 46.008C164.298 43.704 165.492 42.0827 166.175 41.144C165.066 42.168 164.042 43.192 163.103 44.216C162.164 45.24 161.61 45.752 161.439 45.752C161.354 45.752 161.78 44.984 162.719 43.448C163.743 41.8267 165.706 38.9253 168.607 34.744C169.46 34.744 170.484 35.2133 171.679 36.152C172.874 37.0907 173.94 38.1573 174.879 39.352C175.818 40.5467 176.287 41.5707 176.287 42.424C175.348 43.96 173.855 45.9227 171.807 48.312C169.844 50.616 167.754 53.0053 165.535 55.48C163.402 57.9547 161.482 60.216 159.775 62.264C160.031 62.008 161.055 61.112 162.847 59.576C164.724 58.04 167.028 56.12 169.759 53.816C172.49 51.512 175.391 49.08 178.463 46.52C181.62 43.96 184.607 41.5707 187.423 39.352C190.239 37.048 192.628 35.2133 194.591 33.848C196.639 32.3973 197.919 31.672 198.431 31.672C198.943 31.672 199.668 32.184 200.607 33.208C201.631 34.1467 202.57 35.2133 203.423 36.408C204.276 37.6027 204.703 38.584 204.703 39.352C204.703 39.4373 204.063 40.1627 202.783 41.528C201.588 42.8933 200.052 44.6427 198.175 46.776C196.383 48.824 194.591 51 192.799 53.304C191.007 55.5227 189.471 57.6133 188.191 59.576C186.996 61.5387 186.442 62.9893 186.527 63.928C185.674 63.7573 184.948 62.9893 184.351 61.624C183.754 60.1733 183.455 58.552 183.455 56.76C183.455 55.736 183.754 54.4987 184.351 53.048C185.034 51.5973 185.759 50.1893 186.527 48.824C187.38 47.4587 188.106 46.264 188.703 45.24C189.386 44.216 189.727 43.6613 189.727 43.576C189.215 44.1733 188.49 45.1547 187.551 46.52C186.698 47.8853 185.844 49.2507 184.991 50.616C184.223 51.896 183.711 52.8347 183.455 53.432C183.711 52.408 184.436 50.744 185.631 48.44C186.826 46.136 188.404 43.832 190.367 41.528C189.428 42.3813 187.807 43.832 185.503 45.88C183.284 47.8427 180.724 50.1893 177.823 52.92C174.922 55.6507 171.892 58.5093 168.735 61.496C165.663 64.3973 162.719 67.256 159.903 70.072C157.087 72.888 154.698 75.448 152.735 77.752C150.858 79.9707 149.663 81.72 149.151 83ZM210.175 93.112C208.127 93.112 206.207 91.8747 204.415 89.4C202.794 87.1813 201.386 84.28 200.191 80.696C198.996 77.112 198.399 73.4853 198.399 69.816C198.399 69.1333 198.399 68.4933 198.399 67.896C198.484 67.2133 198.57 66.5733 198.655 65.976C198.911 64.44 199.722 63.3733 201.087 62.776C202.538 62.0933 203.562 61.88 204.159 62.136C204.33 62.136 204.543 62.1787 204.799 62.264C205.055 62.3493 205.354 62.4773 205.695 62.648C207.658 61.7093 210.004 59.96 212.735 57.4C215.466 54.84 217.77 51.8533 219.647 48.44C220.756 46.4773 221.311 45.1547 221.311 44.472C221.311 43.704 220.756 43.6613 219.647 44.344C218.623 45.0267 217.471 45.9227 216.191 47.032C214.996 48.056 214.058 48.8667 213.375 49.464C208.17 54.1573 203.135 58.4667 198.271 62.392C193.407 66.3173 189.268 70.584 185.855 75.192C184.66 76.8133 183.636 78.264 182.783 79.544C181.93 80.7387 181.418 81.8907 181.247 83C179.199 81.5493 177.834 80.184 177.151 78.904C176.468 77.624 176.127 76.3867 176.127 75.192C176.127 74.5093 176.212 73.8693 176.383 73.272C176.468 72.6747 176.596 72.0773 176.767 71.48C177.279 69.688 178.602 67 180.735 63.416C182.954 59.832 185.642 55.736 188.799 51.128C191.956 46.52 195.327 41.7413 198.911 36.792C202.495 31.8427 205.951 27.1067 209.279 22.584C212.607 18.0613 215.551 14.0933 218.111 10.68C220.671 7.26667 222.463 4.83466 223.487 3.384C223.06 3.64 222.719 3.85333 222.463 4.02399C222.292 4.10933 221.908 4.49333 221.311 5.17599C220.799 5.77333 219.818 6.968 218.367 8.75999C216.234 11.4907 215.082 12.856 214.911 12.856C214.826 12.856 215.082 12.3867 215.679 11.448C216.276 10.5093 217.044 9.35733 217.983 7.992C218.922 6.54133 219.86 5.17599 220.799 3.896C221.738 2.616 222.463 1.67733 222.975 1.07999C223.487 0.567996 223.871 0.311996 224.127 0.311996C224.298 0.311996 224.511 0.397329 224.767 0.567993C225.108 0.65333 225.578 0.781331 226.175 0.951996C226.858 1.12266 227.796 1.71999 228.991 2.744C230.271 3.768 231.338 4.92 232.191 6.2C233.13 7.39466 233.428 8.46133 233.087 9.39999C232.063 10.424 230.442 12.216 228.223 14.776C226.004 17.336 223.359 20.3653 220.287 23.864C217.3 27.3627 214.143 31.1173 210.815 35.128C207.487 39.0533 204.202 42.9787 200.959 46.904C197.716 50.744 194.73 54.328 191.999 57.656C189.268 60.8987 187.05 63.6293 185.343 65.848C183.636 68.0667 182.655 69.432 182.399 69.944C183.252 69.5173 184.746 68.28 186.879 66.232C189.098 64.184 191.743 61.7093 194.815 58.808C197.887 55.8213 201.172 52.7493 204.671 49.592C208.17 46.3493 211.668 43.3627 215.167 40.632C218.751 37.816 222.122 35.5973 225.279 33.976C226.474 33.976 227.796 34.488 229.247 35.512C230.783 36.536 231.679 37.56 231.935 38.584C233.386 39.2667 234.111 40.376 234.111 41.912C234.111 43.448 233.428 45.112 232.063 46.904C230.783 48.696 229.503 50.1893 228.223 51.384C227.626 51.9813 226.986 52.536 226.303 53.048C225.706 53.56 225.066 54.072 224.383 54.584C225.834 53.1333 227.199 51.512 228.479 49.72C229.844 47.928 231.167 45.9227 232.447 43.704C232.618 43.2773 232.66 42.808 232.575 42.296C232.575 41.6987 232.404 41.784 232.063 42.552C230.698 45.624 228.948 48.44 226.815 51C224.682 53.56 222.42 55.864 220.031 57.912C220.714 57.4853 221.396 57.016 222.079 56.504C222.847 55.9067 223.572 55.3093 224.255 54.712C222.378 56.8453 220.458 58.6373 218.495 60.088C216.532 61.4533 214.698 62.5627 212.991 63.416C212.82 63.5013 212.65 63.5867 212.479 63.672C212.308 63.7573 212.18 63.8 212.095 63.8L213.759 62.648C215.892 61.1973 217.983 59.6187 220.031 57.912C217.471 59.6187 215.167 60.984 213.119 62.008C211.071 63.032 209.45 63.7573 208.255 64.184C209.194 64.7813 209.578 65.464 209.407 66.232C209.322 66.8293 209.236 68.1947 209.151 70.328C209.066 72.376 209.023 74.552 209.023 76.856C209.023 78.136 209.023 79.3733 209.023 80.568C209.023 81.6773 209.066 82.7013 209.151 83.64C209.322 87.1387 210.303 88.888 212.095 88.888C212.948 88.888 214.186 88.2907 215.807 87.096C216.319 86.6693 216.746 86.456 217.087 86.456C217.258 86.456 217.343 86.584 217.343 86.84C217.343 88.2053 216.575 89.5707 215.039 90.936C213.503 92.3867 211.882 93.112 210.175 93.112ZM221.356 86.456C218.967 84.4933 216.919 82.6587 215.212 80.952C213.591 79.2453 212.78 77.5813 212.78 75.96C212.78 75.5333 212.823 75.192 212.908 74.936C213.761 71.9493 215.297 68.408 217.516 64.312C219.82 60.216 222.508 55.8213 225.58 51.128C228.737 46.3493 232.065 41.5707 235.564 36.792C239.063 31.928 242.476 27.32 245.804 22.968C249.217 18.5307 252.332 14.6053 255.148 11.192C257.964 7.69333 260.225 4.96266 261.932 3C263.639 1.03733 264.535 0.0559998 264.62 0.0559998C265.473 0.311996 266.753 1.16533 268.46 2.616C270.167 3.98133 271.319 5.38933 271.916 6.84C272.087 7.01066 272.172 7.18133 272.172 7.352C272.257 8.37599 272.855 9.31466 273.964 10.168C275.073 11.0213 275.628 11.96 275.628 12.984C275.628 15.8853 274.519 19.0427 272.3 22.456C270.081 25.784 267.18 29.1973 263.596 32.696C260.012 36.1947 256.129 39.6507 251.948 43.064C247.767 46.392 243.628 49.5067 239.532 52.408C235.521 55.224 232.023 57.6987 229.036 59.832C226.476 63.416 224.94 66.616 224.428 69.432C224.001 72.248 223.831 74.3387 223.916 75.704C228.097 72.888 232.065 69.7307 235.82 66.232C236.759 65.464 238.124 64.3973 239.916 63.032C241.793 61.5813 243.713 60.1733 245.676 58.808C247.639 57.4427 249.132 56.4613 250.156 55.864C251.095 55.352 251.82 54.9253 252.332 54.584C252.929 54.2427 252.887 54.328 252.204 54.84C250.156 56.4613 247.425 58.5093 244.012 60.984C248.876 57.7413 253.74 55.352 258.604 53.816C259.543 53.4747 260.268 53.304 260.78 53.304C261.633 53.304 261.591 53.7733 260.652 54.712C259.713 55.5653 258.604 56.4613 257.324 57.4C251.436 61.6667 245.377 66.1467 239.148 70.84C232.919 75.5333 226.988 80.7387 221.356 86.456ZM234.156 52.792C237.399 50.4027 240.471 47.8427 243.372 45.112C246.273 42.296 249.175 39.5653 252.076 36.92C257.111 32.1413 261.164 27.4907 264.236 22.968C267.393 18.4453 269.399 14.4347 270.252 10.936C268.716 12.6427 266.625 14.9893 263.98 17.976C261.42 20.8773 258.561 24.1627 255.404 27.832C252.247 31.416 249.004 35.128 245.676 38.968C242.433 42.808 239.361 46.4773 236.46 49.976C236.204 50.232 235.863 50.616 235.436 51.128C235.095 51.5547 234.668 52.1093 234.156 52.792ZM226.092 76.984C227.031 76.0453 228.225 74.936 229.676 73.656C231.127 72.376 232.791 70.7973 234.668 68.92C235.521 68.0667 236.801 66.872 238.508 65.336C240.3 63.8 242.135 62.3493 244.012 60.984C240.599 63.3733 237.612 65.592 235.052 67.64C232.492 69.688 230.145 71.608 228.012 73.4L226.22 75.576C225.708 76.1733 225.495 76.6427 225.58 76.984C225.665 77.3253 225.836 77.3253 226.092 76.984ZM255.757 84.024C254.562 84.024 253.282 83.768 251.917 83.256C250.637 82.8293 249.485 82.1467 248.461 81.208C247.437 80.2693 246.328 78.8613 245.133 76.984C244.024 75.0213 243.469 73.1013 243.469 71.224C243.469 70.456 243.597 69.7733 243.853 69.176C246.584 61.8373 251.021 55.1387 257.165 49.08C263.309 42.936 270.818 37.7733 279.693 33.592C280.888 33.592 282.125 34.0613 283.405 35C284.685 35.8533 285.752 36.92 286.605 38.2L288.909 38.968C288.824 38.0293 288.525 37.4747 288.013 37.304C287.501 37.048 287.245 36.7067 287.245 36.28C287.416 35.512 287.97 35.0853 288.909 35C289.848 34.8293 290.53 34.744 290.957 34.744C292.322 34.744 293.432 35.384 294.285 36.664C295.224 37.8587 295.736 39.1813 295.821 40.632C297.869 40.888 300.002 41.0587 302.221 41.144C304.44 41.2293 306.36 41.3147 307.981 41.4C309.688 41.4 310.626 41.4 310.797 41.4H311.181C311.437 41.4 311.565 41.5707 311.565 41.912C311.565 42.5093 311.224 43.0213 310.541 43.448C309.688 44.1307 307.682 44.6 304.525 44.856C301.453 45.0267 298.21 45.112 294.797 45.112C294.37 46.392 293.73 47.7573 292.877 49.208C292.024 50.6587 291.042 52.152 289.933 53.688C289.165 54.7973 288.013 56.2907 286.477 58.168C284.941 59.96 283.362 61.7947 281.741 63.672C280.12 65.5493 278.754 67.128 277.645 68.408C278.413 67.7253 279.65 66.5307 281.357 64.824C283.149 63.032 284.6 61.4533 285.709 60.088C286.136 59.576 286.776 58.7653 287.629 57.656C288.482 56.4613 289.293 55.352 290.061 54.328C290.914 53.2187 291.426 52.4933 291.597 52.152C290.488 54.456 289.08 56.6747 287.373 58.808C285.666 60.9413 283.96 62.8613 282.253 64.568C280.546 66.2747 279.096 67.6827 277.901 68.792C276.706 69.816 276.024 70.4133 275.853 70.584C272.269 74.3387 268.642 77.5387 264.973 80.184C261.389 82.744 258.317 84.024 255.757 84.024ZM251.661 79.672C252.088 79.672 252.6 79.544 253.197 79.288C254.136 78.776 255.33 77.9653 256.781 76.856C258.317 75.7467 259.896 74.5947 261.517 73.4C262.968 72.2053 264.589 70.7547 266.381 69.048C268.173 67.256 270.136 65.1653 272.269 62.776C274.146 60.6427 276.152 58.3387 278.285 55.864C280.418 53.304 282.509 50.6587 284.557 47.928L282.637 49.72C283.234 49.1227 283.96 48.312 284.813 47.288C285.752 46.1787 286.52 45.3253 287.117 44.728C284.472 44.5573 282.893 44.4293 282.381 44.344C282.296 44.5147 282.168 44.6 281.997 44.6C281.826 44.6 281.741 44.3013 281.741 43.704C281.741 43.5333 281.741 43.32 281.741 43.064C281.741 42.7227 281.784 42.3813 281.869 42.04C281.016 41.9547 280.077 42.0827 279.053 42.424C278.029 42.7653 276.877 43.4907 275.597 44.6C274.146 45.9653 272.269 47.672 269.965 49.72C267.661 51.768 265.272 54.1147 262.797 56.76C260.322 59.32 257.976 62.0933 255.757 65.08C253.624 68.0667 251.917 71.224 250.637 74.552C250.21 75.576 249.997 76.6 249.997 77.624C249.997 79.0747 250.637 79.5013 251.917 78.904C251.49 79.16 251.277 79.3307 251.277 79.416C251.277 79.5867 251.405 79.672 251.661 79.672ZM251.917 78.904C253.538 78.0507 256.098 76.2587 259.597 73.528C263.181 70.712 266.808 67.2987 270.477 63.288C271.672 62.008 273.037 60.5573 274.573 58.936C276.109 57.2293 277.602 55.608 279.053 54.072C280.504 52.536 281.613 51.3413 282.381 50.488C280.418 52.8773 278.584 55.0533 276.877 57.016C275.256 58.8933 273.677 60.6853 272.141 62.392C268.557 66.232 264.888 69.688 261.133 72.76C257.464 75.832 254.392 77.88 251.917 78.904ZM288.682 85.176C288.17 85.176 287.359 84.5787 286.25 83.384C285.226 82.2747 284.159 81.0373 283.05 79.672C282.026 78.2213 281.258 77.1547 280.746 76.472C281.514 73.144 282.837 69.688 284.714 66.104C286.677 62.4347 288.938 58.8507 291.498 55.352C294.058 51.8533 296.618 48.6107 299.178 45.624C301.823 42.6373 304.127 40.12 306.09 38.072C304.639 39.1813 303.103 40.632 301.482 42.424C299.861 44.1307 298.751 45.2827 298.154 45.88C297.13 46.904 296.106 47.928 295.082 48.952C294.058 49.8907 293.119 50.8293 292.266 51.768C294.826 48.6107 297.343 45.7093 299.818 43.064C302.378 40.4187 304.213 38.6693 305.322 37.816C305.578 37.56 305.919 37.2613 306.346 36.92C306.858 36.5787 307.413 36.3653 308.01 36.28L309.034 35.128C311.338 35.2133 313.813 35.9387 316.458 37.304C319.103 38.584 321.365 40.2907 323.242 42.424C325.205 44.472 326.229 46.8187 326.314 49.464C326.314 49.8053 326.143 50.1467 325.802 50.488C325.461 50.744 325.205 50.5733 325.034 49.976C324.437 48.696 323.754 47.544 322.986 46.52C322.218 45.496 321.365 44.6853 320.426 44.088C319.573 43.576 318.677 43.32 317.738 43.32C316.714 43.32 315.775 43.6613 314.922 44.344C313.215 45.624 311.167 47.544 308.778 50.104C306.474 52.5787 304.127 55.2667 301.738 58.168C299.434 61.0693 297.343 63.8853 295.466 66.616C293.674 69.3467 292.437 71.608 291.754 73.4C292.266 72.8027 293.162 71.9493 294.442 70.84C295.722 69.7307 297.087 68.6213 298.538 67.512C299.989 66.3173 301.226 65.336 302.25 64.568C302.591 64.312 303.317 63.8 304.426 63.032C305.535 62.264 306.687 61.4533 307.882 60.6C309.162 59.7467 310.186 59.1067 310.954 58.68C310.954 58.8507 310.442 59.32 309.418 60.088C308.479 60.856 307.327 61.7093 305.962 62.648C304.597 63.5867 303.317 64.44 302.122 65.208C301.013 65.976 300.33 66.488 300.074 66.744C299.135 67.5973 298.026 68.5787 296.746 69.688C295.551 70.7973 294.442 71.8213 293.418 72.76C292.394 73.6987 291.711 74.3813 291.37 74.808C291.199 75.1493 291.157 75.3627 291.242 75.448C291.327 75.5333 291.498 75.4053 291.754 75.064C292.522 73.9547 293.674 72.76 295.21 71.48C296.746 70.2 298.41 68.92 300.202 67.64C302.079 66.2747 303.743 65.0373 305.194 63.928C306.901 62.648 308.437 61.5387 309.802 60.6C311.253 59.576 312.533 58.6373 313.642 57.784C313.727 55.992 314.367 54.7547 315.562 54.072C316.842 53.3893 317.823 53.176 318.506 53.432C319.018 53.6027 319.786 53.944 320.81 54.456C321.919 54.8827 322.901 55.4373 323.754 56.12C324.607 56.7173 324.863 57.4 324.522 58.168C323.925 59.5333 323.455 61.6667 323.114 64.568C322.858 67.384 322.73 69.9867 322.73 72.376C322.73 75.7893 323.797 77.496 325.93 77.496C327.039 77.496 328.533 76.8987 330.41 75.704C331.093 75.2773 331.605 75.064 331.946 75.064C332.202 75.064 332.33 75.192 332.33 75.448C332.33 75.7893 332.117 76.3013 331.69 76.984C331.263 77.5813 330.965 77.9653 330.794 78.136C329.77 79.2453 328.533 80.2693 327.082 81.208C325.717 82.0613 324.309 82.488 322.858 82.488C322.261 82.488 321.663 82.4027 321.066 82.232C320.469 82.0613 319.871 81.7627 319.274 81.336C317.141 79.8853 315.605 77.6667 314.666 74.68C313.813 71.6933 313.386 69.1333 313.386 67C313.386 66.488 313.386 66.0187 313.386 65.592C313.471 65.1653 313.557 64.7813 313.642 64.44C312.703 65.208 311.125 66.5307 308.906 68.408C306.773 70.2 304.383 72.248 301.738 74.552C299.093 76.7707 296.575 78.8613 294.186 80.824C291.797 82.7867 289.962 84.2373 288.682 85.176ZM327.623 86.84C327.111 86.84 326.343 86.584 325.319 86.072C324.295 85.6453 323.356 85.048 322.503 84.28C321.735 83.512 321.351 82.7867 321.351 82.104C321.351 81.6773 321.564 81.1227 321.991 80.44L322.119 80.184C320.924 78.5627 320.242 77.3253 320.071 76.472C321.095 72.7173 322.759 68.92 325.063 65.08C327.367 61.1547 329.842 57.4 332.487 53.816C331.122 55.1813 329.842 56.5893 328.647 58.04C327.538 59.4053 326.556 60.5147 325.703 61.368C327.154 59.1493 329.031 56.8027 331.335 54.328C333.639 51.8533 335.73 49.5493 337.607 47.416C336.754 48.44 335.9 49.464 335.047 50.488C334.194 51.512 333.34 52.6213 332.487 53.816C332.999 53.304 333.468 52.792 333.895 52.28C334.407 51.768 334.919 51.2987 335.431 50.872C335.943 50.36 336.754 49.5067 337.863 48.312C339.058 47.1173 340.338 45.7947 341.703 44.344C343.154 42.8933 344.476 41.5707 345.671 40.376C346.951 39.1813 347.932 38.3707 348.615 37.944C349.724 37.176 349.98 36.792 349.383 36.792C348.956 36.792 348.231 37.2187 347.207 38.072C346.268 38.9253 345.33 39.8213 344.391 40.76C343.538 41.6987 342.983 42.296 342.727 42.552L337.607 47.416C340.082 44.6 342.386 42.0827 344.519 39.864C346.738 37.56 348.572 35.7253 350.023 34.36C351.815 34.4453 353.778 34.9147 355.911 35.768C358.044 36.536 359.879 37.688 361.415 39.224C364.06 41.6987 365.639 44.3013 366.151 47.032C369.138 42.8507 372.167 38.6267 375.239 34.36C378.396 30.008 381.383 25.912 384.199 22.072C387.1 18.232 389.618 14.904 391.751 12.088C393.884 9.18667 395.42 7.05333 396.359 5.688C396.103 5.26133 395.847 4.87733 395.591 4.536C395.335 4.19466 395.207 3.896 395.207 3.64C395.207 3.128 395.932 2.91466 397.383 3C398.578 3.08533 399.943 3.59733 401.479 4.536C403.1 5.47466 404.466 6.54133 405.575 7.736C406.684 8.84533 407.068 9.86933 406.727 10.808C405.703 11.832 404.039 13.624 401.735 16.184C399.431 18.744 396.7 21.7733 393.543 25.272C390.471 28.7707 387.228 32.5253 383.815 36.536C380.402 40.4613 377.074 44.344 373.831 48.184C373.319 48.7813 372.466 49.9333 371.271 51.64C370.076 53.3467 368.711 55.3947 367.175 57.784C365.639 60.088 364.146 62.5627 362.695 65.208C361.33 67.768 360.178 70.2853 359.239 72.76C358.3 75.1493 357.831 77.1973 357.831 78.904C357.831 81.208 358.642 82.5733 360.263 83C361.372 83.3413 361.927 83.6827 361.927 84.024C361.927 84.4507 361.33 84.664 360.135 84.664C359.196 84.664 358.172 84.4933 357.063 84.152C355.015 83.5547 353.564 82.5733 352.711 81.208C351.943 79.7573 351.559 78.1787 351.559 76.472C351.559 73.912 352.114 71.2667 353.223 68.536C354.418 65.72 355.527 63.3733 356.551 61.496C353.906 63.9707 350.962 66.744 347.719 69.816C344.476 72.8027 341.362 75.576 338.375 78.136C338.546 78.136 338.716 78.2213 338.887 78.392C339.228 78.5627 338.93 79.1173 337.991 80.056C337.138 80.9093 335.986 81.8907 334.535 83C333.084 84.024 331.676 84.92 330.311 85.688C329.031 86.456 328.135 86.84 327.623 86.84ZM332.231 76.856C333.426 76.088 335.09 74.936 337.223 73.4C339.356 71.7787 341.746 69.944 344.391 67.896C347.122 65.7627 349.895 63.544 352.711 61.24C355.527 58.8507 358.13 56.5893 360.519 54.456C360.178 54.2853 360.007 53.9013 360.007 53.304C360.007 52.7067 360.178 52.0667 360.519 51.384C361.287 49.9333 361.842 48.6533 362.183 47.544C362.524 46.4347 362.695 45.4533 362.695 44.6C362.695 42.552 361.884 41.528 360.263 41.528C358.983 41.528 357.532 42.168 355.911 43.448C354.46 44.5573 352.626 46.264 350.407 48.568C348.188 50.7867 345.884 53.304 343.495 56.12C341.191 58.8507 339.015 61.5813 336.967 64.312C335.004 66.9573 333.468 69.3467 332.359 71.48C331.335 73.528 330.994 75.0213 331.335 75.96L350.663 61.752C350.834 61.5813 350.962 61.4533 351.047 61.368C351.218 61.2827 351.303 61.24 351.303 61.24C351.388 61.24 351.218 61.496 350.791 62.008C350.364 62.4347 349.938 62.8613 349.511 63.288C348.316 64.2267 346.61 65.5493 344.391 67.256C342.172 68.8773 339.911 70.5413 337.607 72.248C335.388 73.8693 333.511 75.32 331.975 76.6C331.634 76.856 331.463 77.0267 331.463 77.112C331.548 77.1973 331.804 77.112 332.231 76.856ZM378.87 83.896C377.931 83.4693 376.907 82.744 375.798 81.72C374.774 80.696 373.878 79.6293 373.11 78.52C372.427 77.3253 372.086 76.3013 372.086 75.448C372.086 74.424 372.598 73.912 373.622 73.912C374.219 73.912 374.859 73.9973 375.542 74.168C376.225 74.2533 376.993 74.296 377.846 74.296C378.785 74.296 379.851 73.9547 381.046 73.272C382.326 72.504 383.521 72.12 384.63 72.12C385.313 72.12 385.953 72.376 386.55 72.888C387.233 73.3147 387.83 74.1253 388.342 75.32C388.598 75.9173 388.299 76.6853 387.446 77.624C386.678 78.5627 385.697 79.5013 384.502 80.44C383.307 81.2933 382.326 81.9333 381.558 82.36C382.155 82.2747 383.009 81.848 384.118 81.08C385.313 80.312 386.337 79.5013 387.19 78.648C385.739 80.44 384.075 81.8053 382.198 82.744C380.406 83.6827 379.297 84.0667 378.87 83.896Z" fill="white"/>
</svg>
